# xmcd
# 
# Track frame offsets:
#     150
#     25710
#     45149
#     70710
# 
# Disc length: 1199
# 
# Revision: 0
# Processed by: cddbd v1.5.2PL0 Copyright (c) Steve Scherf et al.
# Submitted via: fre:ac v1.0.17
# 
DISCID=2104ad04
DTITLE=栞菜智世 - Blue Star
DYEAR=2016
DGENRE=JPop
TTITLE0=Blue Star
TTITLE1=After the rain
TTITLE2=Blue Star -Instrumental-
TTITLE3=After the rain -Instrumental-
EXTD=YEAR: 2016
EXTT0=
EXTT1=
EXTT2=
EXTT3=
PLAYORDER=
